# xmcd
#
# Track frame offsets:
#	150
#	23163
#	39832
#	59488
#	66868
#
# Disc length: 1088 seconds
#
# Revision: 0
# Processed by: cddbd v1.4PL0 Copyright (c) Steve Scherf et al.
# Submitted via: EasyCDDAExtractor 4.6.0.1
#
DISCID=3b043e05
DTITLE=Ghoultown - Boots of Hell
DYEAR=2001
DGENRE=
TTITLE0=Boots of Hell
TTITLE1=After 2
TTITLE2=Killer in Texas
TTITLE3=Pale Skin Diva
TTITLE4=Southern Witch
EXTD=
EXTT0=
EXTT1=
EXTT2=
EXTT3=
EXTT4=
PLAYORDER=
